<svg xmlns="http://www.w3.org/2000/svg" width="30" height="32" fill="none"><path stroke="#41C67E" stroke-linecap="round" stroke-linejoin="round" stroke-width="1.5" d="M26.674 16.345 15.013 27.894 3.353 16.345A7.775 7.775 0 0 1 6.428 3.362a7.774 7.774 0 0 1 8.584 2.775 7.773 7.773 0 1 1 11.66 10.217"/><path stroke="#41C67E" stroke-linecap="round" stroke-linejoin="round" stroke-width="1.5" d="m15.013 6.127-5.12 5.12a1.555 1.555 0 0 0 0 2.198l.844.845a2.75 2.75 0 0 0 3.887 0l1.555-1.555a4.947 4.947 0 0 1 6.996 0l3.499 3.498M15.79 20.898l3.11 3.109M19.677 17.01l3.11 3.11"/></svg>