<svg fill="none" viewBox="0 0 38 41" xmlns="http://www.w3.org/2000/svg">
  <path stroke="currentColor" stroke-linecap="round" stroke-linejoin="round" stroke-width="2" d="M5 3.53h8l4 10.56-5 3.167c2.142 4.586 5.657 8.298 10 10.56l3-5.28 10 4.223v8.448c0 1.12-.421 2.194-1.172 2.986A3.895 3.895 0 0 1 31 39.431c-7.802-.5-15.16-3.998-20.686-9.834C4.787 23.761 1.474 15.992 1 7.754c0-1.12.421-2.194 1.172-2.987A3.896 3.896 0 0 1 5 3.53m20 5.28c1.326 0 2.598.556 3.535 1.546A5.433 5.433 0 0 1 30 14.09M25 1.419c3.183 0 6.235 1.335 8.485 3.71C35.735 7.507 37 10.73 37 14.09"/>
</svg>
